<?xml version="1.0" encoding="iso-8859-1"?>
<!-- Uploaded to: SVG Repo, www.svgrepo.com, Generator: SVG Repo Mixer Tools -->
<svg fill="#000000" height="800px" width="800px" version="1.1" id="Layer_1" xmlns="http://www.w3.org/2000/svg" xmlns:xlink="http://www.w3.org/1999/xlink" 
	 viewBox="0 0 512 512" xml:space="preserve">
<g>
	<g>
		<path d="M463.607,309.326c-7.842-6.122-17.369-9.161-27.059-8.82v-22.947c0-4.465-3.62-8.084-8.084-8.084h-56.589v-26.947h2.695
			c16.345,0,29.642-13.297,29.642-29.642c0-13.542-9.132-24.983-21.558-28.512v-3.824c0-59.631-41.428-109.761-97.011-123.141
			V29.642C285.642,13.297,272.345,0,256,0s-29.642,13.297-29.642,29.642v27.764c-55.583,13.38-97.011,63.51-97.011,123.141v3.824
			c-12.426,3.529-21.558,14.971-21.558,28.512c0,16.345,13.297,29.642,29.642,29.642h2.695v26.947H83.537
			c-4.465,0-8.084,3.62-8.084,8.084v22.946c-9.691-0.341-19.218,2.699-27.059,8.822c-10.204,7.967-16.056,19.96-16.056,32.906
			c0,12.946,5.852,24.939,16.056,32.906c7.448,5.815,16.415,8.86,25.599,8.86c0.486,0,0.974-0.028,1.461-0.045v22.953
			c0,4.465,3.62,8.084,8.084,8.084h56.589v37.726h-2.695c-16.345,0-29.642,13.297-29.642,29.642
			c0,16.345,13.297,29.642,29.642,29.642h237.137c16.345,0,29.642-13.297,29.642-29.642c0-16.345-13.297-29.642-29.642-29.642
			h-2.695v-37.726h56.589c4.465,0,8.084-3.62,8.084-8.084v-22.952c0.487,0.017,0.974,0.045,1.461,0.045
			c9.184,0,18.152-3.046,25.599-8.86c10.204-7.968,16.056-19.961,16.056-32.907C479.663,329.286,473.811,317.292,463.607,309.326z
			 M75.453,367.783c-6.121,0.34-12.163-1.527-17.109-5.39c-6.252-4.882-9.838-12.23-9.838-20.162s3.586-15.28,9.838-20.162
			c4.564-3.564,10.058-5.429,15.684-5.429c0.474,0,0.949,0.013,1.425,0.04V367.783z M242.526,29.642
			c0-7.43,6.044-13.474,13.474-13.474s13.474,6.044,13.474,13.474v24.253h-26.947V29.642z M145.516,180.547
			c0-60.922,49.563-110.484,110.484-110.484s110.484,49.563,110.484,110.484v2.695H145.516V180.547z M91.621,398.821V285.642h48.505
			v113.179H91.621z M320.751,226.358c-4.548,0-8.218,3.754-8.081,8.333c0.133,4.425,3.993,7.835,8.419,7.835h34.616v210.189H219.261
			c-4.465,0-8.084,3.62-8.084,8.084s3.62,8.084,8.084,8.084h154.913c7.012,0,13.15,5.193,13.807,12.175
			c0.755,8.011-5.554,14.773-13.412,14.773H137.826c-7.012,0-13.15-5.193-13.807-12.175c-0.755-8.011,5.554-14.773,13.412-14.773
			h53.75c4.465,0,8.084-3.62,8.084-8.084s-3.62-8.084-8.084-8.084h-34.887V242.526h136.038c4.427,0,8.287-3.411,8.419-7.835
			c0.137-4.578-3.533-8.333-8.081-8.333H137.826c-7.012,0-13.15-5.193-13.807-12.175c-0.755-8.011,5.554-14.773,13.412-14.773
			h236.742c7.012,0,13.15,5.194,13.807,12.175c0.755,8.011-5.554,14.773-13.412,14.773H320.751z M420.379,398.821h-48.505V285.642
			h48.505V398.821z M453.657,362.394c-4.948,3.863-10.983,5.737-17.109,5.39V316.68c6.119-0.338,12.162,1.526,17.109,5.389
			c6.252,4.882,9.838,12.23,9.838,20.162C463.495,350.164,459.909,357.512,453.657,362.394z"/>
	</g>
</g>
<g>
	<g>
		<path d="M256,269.474c-40.119,0-72.758,32.639-72.758,72.758c0,40.119,32.639,72.758,72.758,72.758s72.758-32.639,72.758-72.758
			C328.758,302.112,296.119,269.474,256,269.474z M256,398.821c-31.204,0-56.589-25.385-56.589-56.589s25.385-56.589,56.589-56.589
			s56.589,25.385,56.589,56.589S287.204,398.821,256,398.821z"/>
	</g>
</g>
</svg>